/* XPM */
static char *cmake_logo[] = {
"32 30 16 2",
"00 c #00CC00",
"01 c #3333CC",
"02 c gray60",
"03 c #99CC99",
"04 c gray80",
"05 c red",
"06 c none",
"07 c black",
"08 c black",
"09 c black",
"10 c black",
"11 c black",
"12 c black",
"13 c black",
"14 c black",
"15 c black",
"0606060606060606060606060606060601060606060606060606060606060606",
"0606060606060606060606060606060601060606060606060606060606060606",
"0606060606060606060606060606060101050606060606060606060606060606",
"0606060606060606060606060606060101050606060606060606060606060606",
"0606060606060606060606060606010101050506060606060606060606060606",
"0606060606060606060606060606010101050506060606060606060606060606",
"0606060606060606060606060601010101050505060606060606060606060606",
"0606060606060606060606060601010101050505060606060606060606060606",
"0606060606060606060606060101010101050505050606060606060606060606",
"0606060606060606060606060101010101050505050606060606060606060606",
"0606060606060606060606010101010101050505050506060606060606060606",
"0606060606060606060606010101010101010505050506060606060606060606",
"0606060606060606060601010101010101010505050505060606060606060606",
"0606060606060606060601010101010101010505050505060606060606060606",
"0606060606060606060101010101010101010505050505050606060606060606",
"0606060606060606060101010101010101010505050505050606060606060606",
"0606060606060606010101010101010101040505050505050506060606060606",
"0606060606060606010101010101010104040505050505050506060606060606",
"0606060606060601010101010101010404040505050505050505060606060606",
"0606060606060601010101010101040404040505050505050505060606060606",
"0606060606060101010101010404040404040505050505050505050606060606",
"0606060606060101010101010404040404040505050505050505050606060606",
"0606060606010101010100000003040404040405050505050505050506060606",
"0606060606010101010000000000000004040405050505050505050506060606",
"0606060601010101000000000000000000000305050505050505050505060606",
"0606060601010100000000000000000000000000000505050505050505060606",
"0606060101000000000000000000000000000000000000050505050505050606",
"0606060100000000000000000000000000000000000000000000050505050606",
"0606010000000000000000000000000000000000000000000000000005050506",
"0606000000000000000000000000000000000000000000000000000000000006"
};
