/* XPM */
static char *CMakeIcon_xpm[] = {
/* columns rows colors chars-per-pixel */
"32 32 7 1",
"  c opaque",
". c blue",
"X c green",
"o c red",
"O c #c0c0c0",
"+ c white",
"@ c None",
/* pixels */
"@@@@@@@@@@@@@@@@@@@@@@@@@@@@@@@@",
"@@@@@@@@@@@@@@@@@@@@@@@@@@@@@@@@",
"@@@@@@@@@@@@@@@@@@@@@@@@@@@@@@@@",
"@@@@@@@@@@@@@@@  @@@@@@@@@@@@@@@",
"@@@@@@@@@@@@@@   @@@@@@@@@@@@@@@",
"@@@@@@@@@@@@@@  o @@@@@@@@@@@@@@",
"@@@@@@@@@@@@@ . o @@@@@@@@@@@@@@",
"@@@@@@@@@@@@@ .. o @@@@@@@@@@@@@",
"@@@@@@@@@@@@ ... o @@@@@@@@@@@@@",
"@@@@@@@@@@@@ ... oo @@@@@@@@@@@@",
"@@@@@@@@@@@ .... oo @@@@@@@@@@@@",
"@@@@@@@@@@@ .... ooo @@@@@@@@@@@",
"@@@@@@@@@@ ..... ooo @@@@@@@@@@@",
"@@@@@@@@@@ ...... ooo @@@@@@@@@@",
"@@@@@@@@@ ....... ooo @@@@@@@@@@",
"@@@@@@@@@ ....... oooo @@@@@@@@@",
"@@@@@@@@ .......  oooo @@@@@@@@@",
"@@@@@@@@ ...... O ooooo @@@@@@@@",
"@@@@@@@  ..... OO ooooo @@@@@@@@",
"@@@@@@@ ..... OOO oooooo @@@@@@@",
"@@@@@@ ..... OOOOO ooooo @@@@@@@",
"@@@@@@ .... X  OOO oooooo @@@@@@",
"@@@@@ .... XXXX  O oooooo @@@@@@",
"@@@@@ ... XXXXXXX  ooooooo @@@@@",
"@@@@ ... XXXXXXXXX   ooooo @@@@@",
"@@@@ .  XXXXXXXXXXXXX  oooo @@@@",
"@@@ . XXXXXXXXXXXXXXXXX  oo @@@@",
"@@@  XXXXXXXXXXXXXXXXXXXX  o @@@",
"@@  XXXXXXXXXXXXXXXXXXXXXXX  @@@",
"@@                            @@",
"@@@@@@@@@@@@@@@@@@@@@@@@@@@@@@@@",
"@@@@@@@@@@@@@@@@@@@@@@@@@@@@@@@@"
};
